<svg width="23" height="23" viewBox="0 0 23 23" fill="none" xmlns="http://www.w3.org/2000/svg">
<path fill-rule="evenodd" clip-rule="evenodd" d="M11.2333 0.224304C14.2327 0.224304 17.0515 1.39045 19.1688 3.50873C23.5452 7.88518 23.5452 15.0053 19.1688 19.3817C17.0234 21.5282 14.1346 22.664 11.2083 22.664C9.61304 22.664 8.00737 22.3268 6.50505 21.6315C6.0624 21.454 5.64793 21.287 5.35039 21.287C5.00796 21.2891 4.54755 21.4478 4.10281 21.6012C3.19036 21.9144 2.05448 22.3049 1.21406 21.4676C0.376775 20.6293 0.763055 19.4965 1.07417 18.5851C1.22764 18.1362 1.38528 17.6727 1.38528 17.3219C1.38528 17.0337 1.24643 16.6663 1.03345 16.137C-0.921961 11.914 -0.0178567 6.82447 3.29893 3.50977C5.41616 1.3915 8.23392 0.224304 11.2333 0.224304ZM11.2344 1.7903C8.65256 1.7903 6.22735 2.79463 4.40557 4.61746C1.55127 7.46966 0.774539 11.8492 2.47104 15.5168C2.71534 16.1213 2.95128 16.7101 2.95128 17.3219C2.95128 17.9326 2.74144 18.5475 2.55665 19.0904C2.40422 19.5373 2.1735 20.2117 2.32175 20.3599C2.46686 20.5103 3.14546 20.2733 3.59334 20.1198C4.131 19.9361 4.74069 19.7252 5.34517 19.721C5.95069 19.721 6.52176 19.9507 7.12623 20.1939C10.8293 21.9061 15.2089 21.1273 18.0621 18.2751C21.8268 14.5083 21.8268 8.38108 18.0621 4.61641C16.2393 2.79359 13.8151 1.7903 11.2344 1.7903ZM15.3549 10.8342C15.9312 10.8342 16.3989 11.3008 16.3989 11.8782C16.3989 12.4555 15.9312 12.9222 15.3549 12.9222C14.7786 12.9222 14.3068 12.4555 14.3068 11.8782C14.3068 11.3008 14.7693 10.8342 15.3455 10.8342H15.3549ZM11.1698 10.8342C11.746 10.8342 12.2138 11.3008 12.2138 11.8782C12.2138 12.4555 11.746 12.9222 11.1698 12.9222C10.5935 12.9222 10.1216 12.4555 10.1216 11.8782C10.1216 11.3008 10.583 10.8342 11.1604 10.8342H11.1698ZM6.98415 10.8342C7.56043 10.8342 8.02815 11.3008 8.02815 11.8782C8.02815 12.4555 7.56043 12.9222 6.98415 12.9222C6.40786 12.9222 5.93597 12.4555 5.93597 11.8782C5.93597 11.3008 6.39846 10.8342 6.97475 10.8342H6.98415Z" fill="white" fill-opacity="0.5"/>
</svg>
