<svg width="21" height="22" viewBox="0 0 21 22" fill="none" xmlns="http://www.w3.org/2000/svg">
<path fill-rule="evenodd" clip-rule="evenodd" d="M4.49291 12.232C8.74094 12.232 8.92991 13.6727 8.92991 16.669C8.92991 18.1703 8.92991 19.2383 8.29933 20.0202C7.57375 20.9212 6.25309 21.106 4.49291 21.106C2.73272 21.106 1.41206 20.9212 0.686484 20.0202C0.0559082 19.2383 0.0559082 18.1713 0.0559082 16.6951L0.838908 16.669H0.0559082C0.0559082 13.6727 0.244872 12.232 4.49291 12.232ZM15.9769 12.232C20.2249 12.232 20.4139 13.6727 20.4139 16.669C20.4139 18.1703 20.4139 19.2383 19.7833 20.0202C19.0578 20.9212 17.7371 21.106 15.9769 21.106C14.2167 21.106 12.8961 20.9212 12.1705 20.0202C11.5399 19.2383 11.5399 18.1713 11.5399 16.6951L12.3229 16.669H11.5399C11.5399 13.6727 11.7289 12.232 15.9769 12.232ZM4.70814 13.7985L4.49291 13.798C1.76914 13.798 1.62946 13.9934 1.6223 16.2796L1.62273 17.1703C1.62768 18.0796 1.66233 18.7364 1.90483 19.0389C2.18149 19.3813 3.00312 19.54 4.49291 19.54C5.9827 19.54 6.80432 19.3803 7.08098 19.0378C7.36391 18.686 7.36391 17.8508 7.36391 16.694C7.36391 14.0838 7.36391 13.8107 4.70814 13.7985ZM16.1921 13.7985L15.9769 13.798C13.2531 13.798 13.1135 13.9934 13.1063 16.2796L13.1067 17.1703C13.1117 18.0796 13.1463 18.7364 13.3888 19.0389C13.6655 19.3813 14.4871 19.54 15.9769 19.54C17.4667 19.54 18.2883 19.3803 18.565 19.0378C18.8479 18.686 18.8479 17.8508 18.8479 16.694C18.8479 14.0838 18.8479 13.8107 16.1921 13.7985ZM4.49291 0.747986C8.74094 0.747986 8.92991 2.18871 8.92991 5.18499C8.92991 6.68626 8.92991 7.75427 8.29933 8.53623C7.57375 9.4372 6.25309 9.62199 4.49291 9.62199C2.73272 9.62199 1.41206 9.4372 0.686484 8.53623C0.0559082 7.75427 0.0559082 6.6873 0.0559082 5.21109L0.838908 5.18499H0.0559082C0.0559082 2.18871 0.244872 0.747986 4.49291 0.747986ZM15.9769 0.747986C20.2249 0.747986 20.4139 2.18871 20.4139 5.18499C20.4139 6.68626 20.4139 7.75427 19.7833 8.53623C19.0578 9.4372 17.7371 9.62199 15.9769 9.62199C14.2167 9.62199 12.8961 9.4372 12.1705 8.53623C11.5399 7.75427 11.5399 6.6873 11.5399 5.21109L12.3229 5.18499H11.5399C11.5399 2.18871 11.7289 0.747986 15.9769 0.747986ZM4.70814 2.31445L4.49291 2.31399C1.76914 2.31399 1.62946 2.50944 1.6223 4.79563L1.62273 5.68629C1.62768 6.59558 1.66233 7.2524 1.90483 7.55487C2.18149 7.8973 3.00312 8.05599 4.49291 8.05599C5.9827 8.05599 6.80432 7.89625 7.08098 7.55382C7.36391 7.20199 7.36391 6.36679 7.36391 5.21004C7.36391 2.59983 7.36391 2.32674 4.70814 2.31445ZM16.1921 2.31445L15.9769 2.31399C13.2531 2.31399 13.1135 2.50944 13.1063 4.79563L13.1067 5.68629C13.1117 6.59558 13.1463 7.2524 13.3888 7.55487C13.6655 7.8973 14.4871 8.05599 15.9769 8.05599C17.4667 8.05599 18.2883 7.89625 18.565 7.55382C18.8479 7.20199 18.8479 6.36679 18.8479 5.21004C18.8479 2.59983 18.8479 2.32674 16.1921 2.31445Z" fill="white"/>
</svg>
