<svg width="20" height="21" viewBox="0 0 20 21" fill="none" xmlns="http://www.w3.org/2000/svg">
<path fill-rule="evenodd" clip-rule="evenodd" d="M13.5768 0.167969C16.8592 0.167969 19.0641 2.4157 19.0641 5.76068V15.3613C19.0641 18.7355 16.927 20.93 13.6197 20.9509L5.58816 20.954C2.30583 20.954 0.0998535 18.7063 0.0998535 15.3613V5.76068C0.0998535 2.38542 2.23692 0.191981 5.54431 0.172145L13.5758 0.167969H13.5768ZM13.5768 1.73397L5.54953 1.73814C3.1191 1.75276 1.66585 3.25612 1.66585 5.76068V15.3613C1.66585 17.8826 3.13267 19.388 5.58712 19.388L13.6144 19.3849C16.0449 19.3703 17.4981 17.8648 17.4981 15.3613V5.76068C17.4981 3.23942 16.0323 1.73397 13.5768 1.73397ZM13.3755 14.2345C13.8077 14.2345 14.1585 14.5853 14.1585 15.0175C14.1585 15.4497 13.8077 15.8005 13.3755 15.8005H5.83778C5.40557 15.8005 5.05478 15.4497 5.05478 15.0175C5.05478 14.5853 5.40557 14.2345 5.83778 14.2345H13.3755ZM13.3755 9.8638C13.8077 9.8638 14.1585 10.2146 14.1585 10.6468C14.1585 11.079 13.8077 11.4298 13.3755 11.4298H5.83778C5.40557 11.4298 5.05478 11.079 5.05478 10.6468C5.05478 10.2146 5.40557 9.8638 5.83778 9.8638H13.3755ZM8.71369 5.50323C9.1459 5.50323 9.49669 5.85401 9.49669 6.28623C9.49669 6.71844 9.1459 7.06923 8.71369 7.06923H5.83747C5.40525 7.06923 5.05447 6.71844 5.05447 6.28623C5.05447 5.85401 5.40525 5.50323 5.83747 5.50323H8.71369Z" fill="white" fill-opacity="0.5"/>
</svg>
