<svg width="23" height="21" viewBox="0 0 23 21" fill="none" xmlns="http://www.w3.org/2000/svg">
<path fill-rule="evenodd" clip-rule="evenodd" d="M16.36 0.427979C19.8365 0.427979 22.458 3.26453 22.458 7.02606V14.1962C22.458 16.1214 21.7773 17.8607 20.5401 19.0947C19.4304 20.2003 17.9907 20.786 16.3767 20.786H6.09013C4.47924 20.786 3.04061 20.2013 1.92979 19.0947C0.692651 17.8607 0.0119629 16.1214 0.0119629 14.1962V7.02606C0.0119629 3.26453 2.63345 0.427979 6.10997 0.427979H16.36ZM16.36 1.99398H6.10997C3.48431 1.99398 1.57796 4.11017 1.57796 7.02606V14.1962C1.57796 15.7027 2.09579 17.0485 3.03539 17.9849C3.84553 18.794 4.9031 19.22 6.09326 19.22H16.36C16.362 19.2179 16.3704 19.22 16.3767 19.22C17.5679 19.22 18.6244 18.794 19.4345 17.9849C20.3752 17.0485 20.892 15.7027 20.892 14.1962V7.02606C20.892 4.11017 18.9856 1.99398 16.36 1.99398ZM18.0053 6.82645C18.2778 7.16157 18.2266 7.65434 17.8915 7.92786L13.252 11.6988C12.6652 12.1644 11.9637 12.3972 11.2632 12.3972C10.5647 12.3972 9.86837 12.1665 9.28581 11.7051L4.60347 7.92995C4.26626 7.65851 4.21406 7.1647 4.48446 6.82853C4.75694 6.49341 5.24971 6.44017 5.58588 6.71056L10.264 10.4815C10.8518 10.9471 11.6797 10.9471 12.2717 10.4773L16.9028 6.71265C17.239 6.43808 17.7318 6.49028 18.0053 6.82645Z" fill="white" fill-opacity="0.5"/>
</svg>
