<svg width="21" height="22" viewBox="0 0 21 22" fill="none" xmlns="http://www.w3.org/2000/svg">
<path fill-rule="evenodd" clip-rule="evenodd" d="M15.0206 0.587952C18.5587 0.587952 20.9359 3.07058 20.9359 6.76426V15.2916C20.9359 18.9853 18.5587 21.4679 15.0196 21.4679H5.97017C2.43205 21.4679 0.0559082 18.9853 0.0559082 15.2916V6.76426C0.0559082 3.07058 2.43205 0.587952 5.97017 0.587952H15.0206ZM15.0206 2.15395H5.97017C3.32885 2.15395 1.62191 3.9632 1.62191 6.76426V15.2916C1.62191 18.0927 3.32885 19.902 5.97017 19.902H15.0196C17.6619 19.902 19.3699 18.0927 19.3699 15.2916V6.76426C19.3699 3.9632 17.6619 2.15395 15.0206 2.15395ZM14.6178 9.99825C15.1952 9.99825 15.6618 10.4649 15.6618 11.0423C15.6618 11.6196 15.1952 12.0863 14.6178 12.0863C14.0405 12.0863 13.5686 11.6196 13.5686 11.0423C13.5686 10.4649 14.0311 9.99825 14.6074 9.99825H14.6178ZM10.4317 9.99825C11.009 9.99825 11.4757 10.4649 11.4757 11.0423C11.4757 11.6196 11.009 12.0863 10.4317 12.0863C9.85437 12.0863 9.38353 11.6196 9.38353 11.0423C9.38353 10.4649 9.84497 9.99825 10.4223 9.99825H10.4317ZM6.24651 9.99825C6.82385 9.99825 7.29051 10.4649 7.29051 11.0423C7.29051 11.6196 6.82385 12.0863 6.24651 12.0863C5.66918 12.0863 5.19729 11.6196 5.19729 11.0423C5.19729 10.4649 5.65979 9.99825 6.23712 9.99825H6.24651Z" fill="white" fill-opacity="0.5"/>
</svg>
