<svg width="21" height="23" viewBox="0 0 21 23" fill="none" xmlns="http://www.w3.org/2000/svg">
<path fill-rule="evenodd" clip-rule="evenodd" d="M10.775 0.848511C11.5225 0.848511 12.2491 1.15545 12.7701 1.68893C13.29 2.22555 13.5771 2.96157 13.5552 3.70803C13.5572 3.87611 13.6126 4.07029 13.7128 4.24047C13.8788 4.52235 14.1408 4.72071 14.452 4.80214C14.7631 4.87939 15.0888 4.83763 15.3655 4.67373C16.7018 3.91056 18.4025 4.36783 19.1656 5.69371L19.816 6.82019C19.8327 6.85047 19.8473 6.8797 19.8599 6.90997C20.551 8.21602 20.0896 9.86032 18.8054 10.611C18.6186 10.7185 18.4672 10.8688 18.3628 11.0505C18.201 11.3313 18.1561 11.6654 18.2375 11.9723C18.321 12.2855 18.5204 12.5455 18.8013 12.7063C19.435 13.0706 19.9079 13.6845 20.0969 14.3934C20.2858 15.1012 20.1825 15.8696 19.8139 16.5033L19.1207 17.658C18.3576 18.9692 16.6569 19.4234 15.3341 18.6591C15.1577 18.5579 14.9541 18.5025 14.7516 18.4973H14.7453C14.4436 18.4973 14.1335 18.6257 13.908 18.8502C13.6794 19.0788 13.5541 19.3837 13.5562 19.7073C13.5489 21.241 12.3013 22.4812 10.775 22.4812H9.46686C7.93322 22.4812 6.68564 21.2347 6.68564 19.7011C6.68355 19.5121 6.62927 19.3158 6.528 19.1457C6.36409 18.8596 6.09891 18.655 5.79302 18.5735C5.48922 18.4921 5.15618 18.537 4.88265 18.6957C4.22702 19.0611 3.45551 19.1498 2.74976 18.9515C2.04506 18.7521 1.43641 18.2676 1.07936 17.6256L0.426862 16.5012C-0.336302 15.1774 0.117838 13.4809 1.43954 12.7167C1.81434 12.5006 2.04715 12.0976 2.04715 11.6654C2.04715 11.2332 1.81434 10.8292 1.43954 10.613C0.116794 9.84466 -0.336302 8.14398 0.425818 6.82019L1.13365 5.65822C1.88637 4.34904 3.58809 3.88759 4.91502 4.64971C5.09563 4.75725 5.2919 4.81153 5.49131 4.81362C6.14172 4.81362 6.68564 4.27701 6.69608 3.6172C6.69191 2.88953 6.97901 2.19109 7.50205 1.66387C8.02718 1.1377 8.72457 0.848511 9.46686 0.848511H10.775ZM10.775 2.41451H9.46686C9.14322 2.41451 8.84046 2.54083 8.61182 2.76843C8.38423 2.99706 8.25999 3.30087 8.26208 3.62451C8.24016 5.15083 6.99258 6.37962 5.48191 6.37962C4.99749 6.3744 4.53083 6.2439 4.12575 6.00169C3.55677 5.67805 2.81345 5.87746 2.48041 6.45688L1.77362 7.61885C1.44998 8.18052 1.64834 8.92281 2.22463 9.25793C3.07967 9.75279 3.61315 10.6757 3.61315 11.6654C3.61315 12.6551 3.07967 13.577 2.22254 14.0729C1.64939 14.4048 1.45103 15.143 1.78302 15.7172L2.44178 16.853C2.60465 17.1464 2.87087 17.3583 3.17885 17.445C3.48578 17.5306 3.82404 17.494 4.10592 17.3374C4.52039 17.0942 5.00271 16.9679 5.48713 16.9679C5.72621 16.9679 5.96528 16.9981 6.19914 17.0608C6.90488 17.2508 7.51771 17.7227 7.88102 18.3564C8.11697 18.7542 8.24747 19.2187 8.25164 19.6927C8.25164 20.3713 8.79661 20.9152 9.46686 20.9152H10.775C11.4421 20.9152 11.9871 20.3744 11.9902 19.7073C11.986 18.9703 12.2742 18.2697 12.8014 17.7425C13.3213 17.2226 14.0479 16.9105 14.7746 16.9313C15.2506 16.9428 15.7089 17.0712 16.113 17.3009C16.6945 17.6339 17.4368 17.4356 17.7729 16.8614L18.4661 15.7057C18.6206 15.4395 18.6655 15.1054 18.5831 14.7974C18.5016 14.4894 18.297 14.2222 18.0214 14.0645C17.3762 13.6928 16.9158 13.0936 16.7247 12.3753C16.5358 11.6706 16.6391 10.9012 17.0077 10.2675C17.2478 9.84988 17.5996 9.49805 18.0214 9.25584C18.5872 8.92489 18.7856 8.1847 18.4567 7.60841C18.4432 7.58544 18.4306 7.56143 18.4202 7.53637L17.8084 6.47567C17.4754 5.89625 16.7341 5.69685 16.1526 6.02779C15.5241 6.39946 14.7766 6.50595 14.0584 6.31698C13.3411 6.13115 12.7398 5.67701 12.365 5.03599C12.1249 4.6351 11.9944 4.16843 11.9902 3.69341C11.9996 3.33636 11.8743 3.01585 11.6467 2.78095C11.4202 2.5471 11.1018 2.41451 10.775 2.41451ZM10.1255 8.12947C12.0747 8.12947 13.6605 9.71635 13.6605 11.6655C13.6605 13.6146 12.0747 15.1994 10.1255 15.1994C8.17637 15.1994 6.59053 13.6146 6.59053 11.6655C6.59053 9.71635 8.17637 8.12947 10.1255 8.12947ZM10.1255 9.69547C9.03976 9.69547 8.15653 10.5797 8.15653 11.6655C8.15653 12.7513 9.03976 13.6334 10.1255 13.6334C11.2113 13.6334 12.0945 12.7513 12.0945 11.6655C12.0945 10.5797 11.2113 9.69547 10.1255 9.69547Z" fill="white" fill-opacity="0.5"/>
</svg>
