<svg width="21" height="20" viewBox="0 0 21 20" fill="none" xmlns="http://www.w3.org/2000/svg">
<path fill-rule="evenodd" clip-rule="evenodd" d="M7.98171 12.4911C11.3841 12.4911 15.9078 12.8743 15.9078 16.1889C15.9078 19.6806 10.6367 19.8901 8.37572 19.9027L7.55482 19.9027C5.14405 19.8902 0.0556641 19.6819 0.0556641 16.2098C0.0556641 12.7142 5.32671 12.5045 7.5877 12.4919L7.85935 12.4911C7.90168 12.4911 7.9425 12.4911 7.98171 12.4911ZM7.98171 14.0571C5.08044 14.0571 1.62166 14.4298 1.62166 16.2098C1.62166 17.6213 3.76186 18.3375 7.98171 18.3375C12.2016 18.3375 14.3418 17.614 14.3418 16.1889C14.3418 14.7743 12.2016 14.0571 7.98171 14.0571ZM17.4975 12.0034C20.3225 12.4263 20.9145 13.7344 20.9145 14.7565C20.9145 15.5176 20.5856 16.548 19.0165 17.142C18.9257 17.1765 18.8317 17.1932 18.7388 17.1932C18.4224 17.1932 18.1249 17 18.0069 16.6879C17.8535 16.2838 18.057 15.8308 18.4611 15.6783C19.3485 15.3422 19.3485 14.9319 19.3485 14.7565C19.3485 14.1645 18.6479 13.7595 17.2667 13.5538C16.8387 13.4891 16.5432 13.0903 16.6069 12.6633C16.6717 12.2352 17.0778 11.9481 17.4975 12.0034ZM7.98171 0.00799561C10.9373 0.00799561 13.3427 2.41337 13.3427 5.36894C13.3489 6.79295 12.7966 8.13762 11.7902 9.1503C10.7859 10.164 9.44436 10.7247 8.01721 10.7299H7.98171C5.0251 10.7299 2.61973 8.3245 2.61973 5.36894C2.61973 2.41337 5.0251 0.00799561 7.98171 0.00799561ZM15.3812 1.18124C17.4326 1.51741 18.9214 3.27237 18.9214 5.35307C18.9172 7.44629 17.3543 9.24405 15.2851 9.53429C15.2486 9.53951 15.212 9.54159 15.1755 9.54159C14.7913 9.54159 14.4562 9.25867 14.4008 8.86717C14.3413 8.43913 14.6389 8.04241 15.0669 7.9829C16.3698 7.8002 17.3533 6.66955 17.3554 5.35202C17.3554 4.04285 16.4179 2.93829 15.1285 2.72741C14.7015 2.65641 14.4123 2.25447 14.4823 1.82748C14.5522 1.40048 14.9563 1.11338 15.3812 1.18124ZM7.98171 1.574C5.88849 1.574 4.18573 3.27676 4.18573 5.36894C4.18573 7.46111 5.88849 9.16388 7.98171 9.16388H8.01408C9.02049 9.1597 9.96844 8.76402 10.6794 8.04679C11.3914 7.33165 11.7808 6.38057 11.7767 5.37207C11.7767 3.27676 10.0739 1.574 7.98171 1.574Z" fill="white" fill-opacity="0.5"/>
</svg>
